<?xml version="1.0" encoding="UTF-8" standalone="no"?>
<!-- Created with Inkscape (http://www.inkscape.org/) -->

<svg
   width="512"
   height="512"
   viewBox="0 0 512 512"
   version="1.1"
   id="svg1"
   xmlns="http://www.w3.org/2000/svg"
   xmlns:svg="http://www.w3.org/2000/svg">
  <defs
     id="defs1" />
  <g
     id="g6"
     style="display:inline">
    <circle
       style="fill:#febe17;fill-opacity:1;stroke:none;stroke-width:5.91874;paint-order:markers stroke fill"
       id="path4"
       cx="368.17474"
       cy="200.19844"
       r="87.75103" />
    <path
       id="circle4"
       style="fill:#ffc841;fill-opacity:1;stroke:none;stroke-width:5.91874;paint-order:markers stroke fill"
       d="m 356.61523,129.26172 a 87.75103,87.75103 0 0 0 -66.04101,29.9668 87.75103,87.75103 0 0 0 -10.15039,40.9707 87.75103,87.75103 0 0 0 87.75,87.75 87.75103,87.75103 0 0 0 66.04101,-29.9668 87.75103,87.75103 0 0 0 10.15039,-40.96875 87.75103,87.75103 0 0 0 -87.75,-87.75195 z" />
  </g>
  <g
     id="g10"
     style="display:none">
    <circle
       style="fill:#5a89bb;fill-opacity:1;stroke:none;stroke-width:5.91874;paint-order:markers stroke fill"
       id="circle10"
       cx="368.17474"
       cy="200.19844"
       r="87.75103" />
    <path
       id="path10"
       style="fill:#78a5c8;fill-opacity:1;stroke:none;stroke-width:5.91874;paint-order:markers stroke fill"
       d="m 356.61523,129.26172 a 87.75103,87.75103 0 0 0 -66.04101,29.9668 87.75103,87.75103 0 0 0 -10.15039,40.9707 87.75103,87.75103 0 0 0 87.75,87.75 87.75103,87.75103 0 0 0 66.04101,-29.9668 87.75103,87.75103 0 0 0 10.15039,-40.96875 87.75103,87.75103 0 0 0 -87.75,-87.75195 z" />
  </g>
  <g
     id="layer1"
     style="display:none">
    <g
       id="g4"
       style="display:inline">
      <path
         id="path1"
         style="display:none;fill:#dfdfdf;fill-opacity:1;stroke:none;stroke-width:5.14879;paint-order:markers stroke fill"
         d="m 236.61809,155.15029 a 111.07538,109.82873 0 0 0 -111.07531,109.82821 111.07538,109.82873 0 0 0 0.64055,11.77271 50.422123,50.422123 0 0 0 -16.31087,-2.70999 50.422123,50.422123 0 0 0 -50.422664,50.42268 50.422123,50.422123 0 0 0 50.422664,50.42096 h 276.44032 v -0.0781 a 71.10812,71.10812 0 0 0 71.02873,-71.10692 71.10812,71.10812 0 0 0 -71.10689,-71.10858 71.10812,71.10812 0 0 0 -40.3643,12.56616 111.07538,109.82873 0 0 0 -109.25223,-90.00711 z" />
      <path
         id="path3"
         style="display:none;fill:#ffffff;fill-opacity:1;stroke:none;stroke-width:5.14879;paint-order:markers stroke fill"
         d="m 236.61719,155.15039 a 111.07538,109.82873 0 0 0 -111.07422,109.82813 111.07538,109.82873 0 0 0 0.64062,11.77343 50.422123,50.422123 0 0 0 -16.31054,-2.71093 50.422123,50.422123 0 0 0 -48.3418,36.30273 50.422123,50.422123 0 0 0 48.3418,36.30273 H 386.3125 v -0.0781 a 71.10812,71.10812 0 0 0 69.61328,-56.98828 71.10812,71.10812 0 0 0 -69.6914,-56.98828 71.10812,71.10812 0 0 0 -40.36329,12.5664 111.07538,109.82873 0 0 0 -109.2539,-90.00781 z" />
      <g
         id="g16"
         style="display:inline">
        <path
           id="path15"
           style="fill:#4c5867;fill-opacity:1;stroke:none;stroke-width:5.14879;paint-order:markers stroke fill"
           d="m 236.61809,155.15029 a 111.07538,109.82873 0 0 0 -111.07531,109.82821 111.07538,109.82873 0 0 0 0.64055,11.77271 50.422123,50.422123 0 0 0 -16.31087,-2.70999 50.422123,50.422123 0 0 0 -50.422664,50.42268 50.422123,50.422123 0 0 0 50.422664,50.42096 h 276.44032 v -0.0781 a 71.10812,71.10812 0 0 0 71.02873,-71.10692 71.10812,71.10812 0 0 0 -71.10689,-71.10858 71.10812,71.10812 0 0 0 -40.3643,12.56616 111.07538,109.82873 0 0 0 -109.25223,-90.00711 z" />
        <path
           id="path16"
           style="fill:#6b7c93;fill-opacity:1;stroke:none;stroke-width:5.14879;paint-order:markers stroke fill"
           d="m 236.61719,155.15039 a 111.07538,109.82873 0 0 0 -111.07422,109.82813 111.07538,109.82873 0 0 0 0.64062,11.77343 50.422123,50.422123 0 0 0 -16.31054,-2.71093 50.422123,50.422123 0 0 0 -48.3418,36.30273 50.422123,50.422123 0 0 0 48.3418,36.30273 H 386.3125 v -0.0781 a 71.10812,71.10812 0 0 0 69.61328,-56.98828 71.10812,71.10812 0 0 0 -69.6914,-56.98828 71.10812,71.10812 0 0 0 -40.36329,12.5664 111.07538,109.82873 0 0 0 -109.2539,-90.00781 z" />
      </g>
    </g>
    <g
       id="g11"
       style="display:none">
      <path
         id="circle7"
         style="display:none;fill:#dfdfdf;fill-opacity:1;stroke:none;stroke-width:3.4757;paint-order:markers stroke fill"
         d="m -77.832031,278.06836 a 41.093334,40.985512 0 0 1 41.091797,40.98633 41.093334,40.985512 0 0 1 -41.091797,40.98633 h -54.181639 v -0.18946 a 30.58827,30.508011 0 0 1 -3.39844,0.18946 A 30.58827,30.508011 0 0 1 -166,329.53125 a 30.58827,30.508011 0 0 1 30.58789,-30.50781 30.58827,30.508011 0 0 1 18.87305,6.52539 41.093334,40.985512 0 0 1 38.707029,-27.48047 z"
         transform="scale(-1,1)" />
      <path
         id="path9"
         style="display:none;fill:#ffffff;fill-opacity:1;stroke:none;stroke-width:3.4757;paint-order:markers stroke fill"
         d="m 77.832031,278.06836 a 41.093334,40.985512 0 0 0 -40.216797,32.58203 41.093334,40.985512 0 0 0 40.216797,32.57617 h 54.181639 v -0.18945 a 30.58827,30.508011 0 0 0 3.39844,0.18945 30.58827,30.508011 0 0 0 29.40234,-22.09961 30.58827,30.508011 0 0 0 -29.40234,-22.10351 30.58827,30.508011 0 0 0 -18.87305,6.52539 41.093334,40.985512 0 0 0 -38.707029,-27.48047 z" />
      <path
         id="path5"
         style="display:none;fill:#dfdfdf;fill-opacity:1;stroke:none;stroke-width:5.91874;paint-order:markers stroke fill"
         d="M 405.94141,220.26953 A 69.885551,69.885551 0 0 0 340.00586,266.99609 52.020069,52.020069 0 0 0 308.01953,256 52.020069,52.020069 0 0 0 256,308.01953 a 52.020069,52.020069 0 0 0 52.01953,52.02149 52.020069,52.020069 0 0 0 5.7793,-0.32227 v 0.32227 h 92.14258 a 69.885551,69.885551 0 0 0 69.88671,-69.88672 69.885551,69.885551 0 0 0 -69.88671,-69.88477 z" />
      <path
         id="path8"
         style="display:none;fill:#ffffff;fill-opacity:1;stroke:none;stroke-width:5.91874;paint-order:markers stroke fill"
         d="M 405.94141,220.26953 A 69.885551,69.885551 0 0 0 340.00586,266.99609 52.020069,52.020069 0 0 0 308.01953,256 a 52.020069,52.020069 0 0 0 -51.25195,43.61328 52.020069,52.020069 0 0 0 51.25195,43.61328 52.020069,52.020069 0 0 0 5.7793,-0.32226 v 0.32226 h 92.14258 a 69.885551,69.885551 0 0 0 69.33593,-61.48047 69.885551,69.885551 0 0 0 -69.33593,-61.47656 z" />
      <g
         id="g14"
         style="display:inline">
        <path
           id="path11"
           style="display:inline;fill:#4c5867;fill-opacity:1;stroke:none;stroke-width:3.4757;paint-order:markers stroke fill"
           d="m -77.832031,278.06836 a 41.093334,40.985512 0 0 1 41.091797,40.98633 41.093334,40.985512 0 0 1 -41.091797,40.98633 h -54.181639 v -0.18946 a 30.58827,30.508011 0 0 1 -3.39844,0.18946 A 30.58827,30.508011 0 0 1 -166,329.53125 a 30.58827,30.508011 0 0 1 30.58789,-30.50781 30.58827,30.508011 0 0 1 18.87305,6.52539 41.093334,40.985512 0 0 1 38.707029,-27.48047 z"
           transform="scale(-1,1)" />
        <path
           id="path12"
           style="fill:#6b7c93;fill-opacity:1;stroke:none;stroke-width:3.4757;paint-order:markers stroke fill"
           d="m 77.832031,278.06836 a 41.093334,40.985512 0 0 0 -40.216797,32.58203 41.093334,40.985512 0 0 0 40.216797,32.57617 h 54.181639 v -0.18945 a 30.58827,30.508011 0 0 0 3.39844,0.18945 30.58827,30.508011 0 0 0 29.40234,-22.09961 30.58827,30.508011 0 0 0 -29.40234,-22.10351 30.58827,30.508011 0 0 0 -18.87305,6.52539 41.093334,40.985512 0 0 0 -38.707029,-27.48047 z" />
        <path
           id="path13"
           style="display:inline;fill:#4c5867;fill-opacity:1;stroke:none;stroke-width:5.91874;paint-order:markers stroke fill"
           d="M 405.94141,220.26953 A 69.885551,69.885551 0 0 0 340.00586,266.99609 52.020069,52.020069 0 0 0 308.01953,256 52.020069,52.020069 0 0 0 256,308.01953 a 52.020069,52.020069 0 0 0 52.01953,52.02149 52.020069,52.020069 0 0 0 5.7793,-0.32227 v 0.32227 h 92.14258 a 69.885551,69.885551 0 0 0 69.88671,-69.88672 69.885551,69.885551 0 0 0 -69.88671,-69.88477 z" />
        <path
           id="path14"
           style="fill:#6b7c93;fill-opacity:1;stroke:none;stroke-width:5.91874;paint-order:markers stroke fill"
           d="M 405.94141,220.26953 A 69.885551,69.885551 0 0 0 340.00586,266.99609 52.020069,52.020069 0 0 0 308.01953,256 a 52.020069,52.020069 0 0 0 -51.25195,43.61328 52.020069,52.020069 0 0 0 51.25195,43.61328 52.020069,52.020069 0 0 0 5.7793,-0.32226 v 0.32226 h 92.14258 a 69.885551,69.885551 0 0 0 69.33593,-61.48047 69.885551,69.885551 0 0 0 -69.33593,-61.47656 z" />
      </g>
    </g>
    <g
       id="g29"
       style="display:inline">
      <g
         id="g25"
         style="display:inline"
         transform="translate(4.9496095,-85.9998)">
        <path
           id="path19"
           style="display:inline;fill:#dfdfdf;fill-opacity:1;stroke:none;stroke-width:5.91874;paint-order:markers stroke fill"
           d="M 405.94141,220.26953 A 69.885551,69.885551 0 0 0 340.00586,266.99609 52.020069,52.020069 0 0 0 308.01953,256 52.020069,52.020069 0 0 0 256,308.01953 a 52.020069,52.020069 0 0 0 52.01953,52.02149 52.020069,52.020069 0 0 0 5.7793,-0.32227 v 0.32227 h 92.14258 A 69.885551,69.885551 0 0 0 475.82812,290.1543 69.885551,69.885551 0 0 0 405.94141,220.26953 Z M 77.832031,278.06836 a 41.093334,40.985512 0 0 0 -41.091797,40.98633 41.093334,40.985512 0 0 0 41.091797,40.98633 h 54.181639 v -0.18946 a 30.58827,30.508011 0 0 0 3.39844,0.18946 A 30.58827,30.508011 0 0 0 166,329.53125 30.58827,30.508011 0 0 0 135.41211,299.02344 30.58827,30.508011 0 0 0 116.53906,305.54883 41.093334,40.985512 0 0 0 77.832031,278.06836 Z" />
        <path
           id="path20"
           style="display:inline;fill:#ffffff;fill-opacity:1;stroke:none;stroke-width:5.91874;paint-order:markers stroke fill"
           d="M 405.94141,220.26953 A 69.885551,69.885551 0 0 0 340.00586,266.99609 52.020069,52.020069 0 0 0 308.01953,256 a 52.020069,52.020069 0 0 0 -51.25195,43.61328 52.020069,52.020069 0 0 0 51.25195,43.61328 52.020069,52.020069 0 0 0 5.7793,-0.32226 v 0.32226 h 92.14258 a 69.885551,69.885551 0 0 0 69.33593,-61.48047 69.885551,69.885551 0 0 0 -69.33593,-61.47656 z M 77.832031,278.06836 a 41.093334,40.985512 0 0 0 -40.216797,32.58203 41.093334,40.985512 0 0 0 40.216797,32.57617 h 54.181639 v -0.18945 a 30.58827,30.508011 0 0 0 3.39844,0.18945 30.58827,30.508011 0 0 0 29.40234,-22.09961 30.58827,30.508011 0 0 0 -29.40234,-22.10351 30.58827,30.508011 0 0 0 -18.87305,6.52539 41.093334,40.985512 0 0 0 -38.707029,-27.48047 z" />
        <path
           id="path31"
           style="display:inline;mix-blend-mode:multiply;fill:#c4c4c4;fill-opacity:1;stroke:none;stroke-width:5.91874;paint-order:markers stroke fill"
           d="M 405.94141,220.26953 A 69.885551,69.885551 0 0 0 340.00586,266.99609 52.020069,52.020069 0 0 0 308.01953,256 52.020069,52.020069 0 0 0 256,308.01953 a 52.020069,52.020069 0 0 0 52.01953,52.02149 52.020069,52.020069 0 0 0 5.7793,-0.32227 v 0.32227 h 92.14258 A 69.885551,69.885551 0 0 0 475.82812,290.1543 69.885551,69.885551 0 0 0 405.94141,220.26953 Z M 77.832031,278.06836 a 41.093334,40.985512 0 0 0 -41.091797,40.98633 41.093334,40.985512 0 0 0 41.091797,40.98633 h 54.181639 v -0.18946 a 30.58827,30.508011 0 0 0 3.39844,0.18946 A 30.58827,30.508011 0 0 0 166,329.53125 30.58827,30.508011 0 0 0 135.41211,299.02344 30.58827,30.508011 0 0 0 116.53906,305.54883 41.093334,40.985512 0 0 0 77.832031,278.06836 Z" />
        <g
           id="g24"
           style="display:inline">
          <path
             id="path23"
             style="display:none;fill:#4c5867;fill-opacity:1;stroke:none;stroke-width:5.91874;paint-order:markers stroke fill"
             d="M 405.94141,220.26953 A 69.885551,69.885551 0 0 0 340.00586,266.99609 52.020069,52.020069 0 0 0 308.01953,256 52.020069,52.020069 0 0 0 256,308.01953 a 52.020069,52.020069 0 0 0 52.01953,52.02149 52.020069,52.020069 0 0 0 5.7793,-0.32227 v 0.32227 h 92.14258 A 69.885551,69.885551 0 0 0 475.82812,290.1543 69.885551,69.885551 0 0 0 405.94141,220.26953 Z M 77.832031,278.06836 a 41.093334,40.985512 0 0 0 -41.091797,40.98633 41.093334,40.985512 0 0 0 41.091797,40.98633 h 54.181639 v -0.18946 a 30.58827,30.508011 0 0 0 3.39844,0.18946 A 30.58827,30.508011 0 0 0 166,329.53125 30.58827,30.508011 0 0 0 135.41211,299.02344 30.58827,30.508011 0 0 0 116.53906,305.54883 41.093334,40.985512 0 0 0 77.832031,278.06836 Z" />
          <path
             id="path24"
             style="display:none;fill:#6b7c93;fill-opacity:1;stroke:none;stroke-width:5.91874;paint-order:markers stroke fill"
             d="M 405.94141,220.26953 A 69.885551,69.885551 0 0 0 340.00586,266.99609 52.020069,52.020069 0 0 0 308.01953,256 a 52.020069,52.020069 0 0 0 -51.25195,43.61328 52.020069,52.020069 0 0 0 51.25195,43.61328 52.020069,52.020069 0 0 0 5.7793,-0.32226 v 0.32226 h 92.14258 a 69.885551,69.885551 0 0 0 69.33593,-61.48047 69.885551,69.885551 0 0 0 -69.33593,-61.47656 z M 77.832031,278.06836 a 41.093334,40.985512 0 0 0 -40.216797,32.58203 41.093334,40.985512 0 0 0 40.216797,32.57617 h 54.181639 v -0.18945 a 30.58827,30.508011 0 0 0 3.39844,0.18945 30.58827,30.508011 0 0 0 29.40234,-22.09961 30.58827,30.508011 0 0 0 -29.40234,-22.10351 30.58827,30.508011 0 0 0 -18.87305,6.52539 41.093334,40.985512 0 0 0 -38.707029,-27.48047 z" />
          <path
             id="path30"
             style="display:none;mix-blend-mode:multiply;fill:#8b8f96;fill-opacity:1;stroke:none;stroke-width:5.91874;paint-order:markers stroke fill"
             d="m 405.94102,220.26933 a 69.885551,69.885551 0 0 0 -65.93555,46.72656 52.020069,52.020069 0 0 0 -31.98633,-10.99609 52.020069,52.020069 0 0 0 -52.01953,52.01953 52.020069,52.020069 0 0 0 52.01953,52.02149 52.020069,52.020069 0 0 0 5.7793,-0.32227 v 0.32227 h 92.14258 A 69.885551,69.885551 0 0 0 475.82773,290.1541 69.885551,69.885551 0 0 0 405.94102,220.26933 Z M 77.831641,278.06816 a 41.093334,40.985512 0 0 0 -41.091797,40.98633 41.093334,40.985512 0 0 0 41.091797,40.98633 h 54.181639 v -0.18946 a 30.58827,30.508011 0 0 0 3.39844,0.18946 30.58827,30.508011 0 0 0 30.58789,-30.50977 30.58827,30.508011 0 0 0 -30.58789,-30.50781 30.58827,30.508011 0 0 0 -18.87305,6.52539 41.093334,40.985512 0 0 0 -38.707029,-27.48047 z" />
        </g>
      </g>
      <path
         id="path25"
         style="display:inline;fill:#dfdfdf;fill-opacity:1;stroke:none;stroke-width:5.14879;paint-order:markers stroke fill"
         d="m 236.61809,155.15029 a 111.07538,109.82873 0 0 0 -111.07531,109.82821 111.07538,109.82873 0 0 0 0.64055,11.77271 50.422123,50.422123 0 0 0 -16.31087,-2.70999 50.422123,50.422123 0 0 0 -50.422664,50.42268 50.422123,50.422123 0 0 0 50.422664,50.42096 h 276.44032 v -0.0781 a 71.10812,71.10812 0 0 0 71.02873,-71.10692 71.10812,71.10812 0 0 0 -71.10689,-71.10858 71.10812,71.10812 0 0 0 -40.3643,12.56616 111.07538,109.82873 0 0 0 -109.25223,-90.00711 z" />
      <path
         id="path26"
         style="display:inline;fill:#ffffff;fill-opacity:1;stroke:none;stroke-width:5.14879;paint-order:markers stroke fill"
         d="m 236.61719,155.15039 a 111.07538,109.82873 0 0 0 -111.07422,109.82813 111.07538,109.82873 0 0 0 0.64062,11.77343 50.422123,50.422123 0 0 0 -16.31054,-2.71093 50.422123,50.422123 0 0 0 -48.3418,36.30273 50.422123,50.422123 0 0 0 48.3418,36.30273 H 386.3125 v -0.0781 a 71.10812,71.10812 0 0 0 69.61328,-56.98828 71.10812,71.10812 0 0 0 -69.6914,-56.98828 71.10812,71.10812 0 0 0 -40.36329,12.5664 111.07538,109.82873 0 0 0 -109.2539,-90.00781 z" />
      <g
         id="g28"
         style="display:none">
        <path
           id="path27"
           style="fill:#4c5867;fill-opacity:1;stroke:none;stroke-width:5.14879;paint-order:markers stroke fill"
           d="m 236.61809,155.15029 a 111.07538,109.82873 0 0 0 -111.07531,109.82821 111.07538,109.82873 0 0 0 0.64055,11.77271 50.422123,50.422123 0 0 0 -16.31087,-2.70999 50.422123,50.422123 0 0 0 -50.422664,50.42268 50.422123,50.422123 0 0 0 50.422664,50.42096 h 276.44032 v -0.0781 a 71.10812,71.10812 0 0 0 71.02873,-71.10692 71.10812,71.10812 0 0 0 -71.10689,-71.10858 71.10812,71.10812 0 0 0 -40.3643,12.56616 111.07538,109.82873 0 0 0 -109.25223,-90.00711 z" />
        <path
           id="path28"
           style="fill:#6b7c93;fill-opacity:1;stroke:none;stroke-width:5.14879;paint-order:markers stroke fill"
           d="m 236.61719,155.15039 a 111.07538,109.82873 0 0 0 -111.07422,109.82813 111.07538,109.82873 0 0 0 0.64062,11.77343 50.422123,50.422123 0 0 0 -16.31054,-2.71093 50.422123,50.422123 0 0 0 -48.3418,36.30273 50.422123,50.422123 0 0 0 48.3418,36.30273 H 386.3125 v -0.0781 a 71.10812,71.10812 0 0 0 69.61328,-56.98828 71.10812,71.10812 0 0 0 -69.6914,-56.98828 71.10812,71.10812 0 0 0 -40.36329,12.5664 111.07538,109.82873 0 0 0 -109.2539,-90.00781 z" />
      </g>
    </g>
  </g>
  <g
     id="layer2">
    <path
       id="rect40"
       style="opacity:0.354;fill:#ffc841;stroke:#ffc841;stroke-width:4.89706;paint-order:markers stroke fill"
       d="m 144.57793,-207.99055 67.53177,3e-4 9.8e-4,-0.002 c -0.18156,-2.45821 -0.30073,-4.92063 -0.3574,-7.38488 l -62.9107,-3.1e-4 z M 68.451387,-45.322999 c -0.685136,1.115974 -0.750598,2.559246 -0.04734,3.777314 1.022911,1.771735 3.273077,2.374884 5.044811,1.351973 L 238.02725,-135.21278 c -1.41378,-2.02179 -2.776,-4.07915 -4.08534,-6.17009 L 69.756017,-46.590497 c -0.553667,0.31966 -0.993204,0.760237 -1.30463,1.267498 z M 191.60265,77.958699 c -1.02291,1.771734 -0.41988,4.022308 1.35186,5.045223 1.77173,1.02291 4.02231,0.419871 5.04522,-1.351863 l 97.32032,-168.563726 c -2.23142,-1.051522 -4.43578,-2.159522 -6.61096,-3.322931 z m 167.7976,-150.969909 -6.3e-4,197.91125 c 0,2.04582 1.64742,3.69295 3.69325,3.69295 2.04582,0 3.69295,-1.64743 3.69295,-3.69325 l 10e-4,-198.197355 c -2.45943,0.157904 -4.92247,0.253403 -7.38674,0.286405 z m 68.89334,-18.354111 86.57129,149.944746 4.26368,-7.384897 -84.47402,-146.311716 c -2.08798,1.303562 -4.20963,2.555714 -6.36095,3.751867 z m 74.8834,-124.010439 c -0.0576,2.4645 -0.17768,4.92715 -0.36018,7.38556 l 132.53824,-4.7e-4 -12.79248,-7.38575 z m -23.13375,75.47898 112.05895,64.697269 3.69336,-6.397086 -111.91349,-64.613283 c -0.0646,0.11229 -0.1294,0.22449 -0.19433,0.3366 -1.16681,2.02106 -2.38199,4.0138 -3.64449,5.9765 z"
       transform="rotate(60)" />
  </g>
</svg>
