<?xml version="1.0" encoding="UTF-8" standalone="no"?>
<!-- Created with Inkscape (http://www.inkscape.org/) -->

<svg
   width="512"
   height="512"
   viewBox="0 0 512 512"
   version="1.1"
   id="svg1"
   xmlns="http://www.w3.org/2000/svg"
   xmlns:svg="http://www.w3.org/2000/svg">
  <defs
     id="defs1" />
  <circle
     style="fill:#febe17;fill-opacity:1;stroke:none;stroke-width:5.91874;paint-order:markers stroke fill"
     id="path4"
     cx="368.17474"
     cy="200.19844"
     r="87.75103" />
  <path
     id="circle4"
     style="fill:#ffc841;fill-opacity:1;stroke:none;stroke-width:5.91874;paint-order:markers stroke fill"
     d="m 356.61523,129.26172 a 87.75103,87.75103 0 0 0 -66.04101,29.9668 87.75103,87.75103 0 0 0 -10.15039,40.9707 87.75103,87.75103 0 0 0 87.75,87.75 87.75103,87.75103 0 0 0 66.04101,-29.9668 87.75103,87.75103 0 0 0 10.15039,-40.96875 87.75103,87.75103 0 0 0 -87.75,-87.75195 z" />
  <g
     id="layer1">
    <g
       id="g4">
      <path
         id="path1"
         style="fill:#dfdfdf;fill-opacity:1;stroke:none;stroke-width:5.14879;paint-order:markers stroke fill"
         d="m 236.61809,155.15029 a 111.07538,109.82873 0 0 0 -111.07531,109.82821 111.07538,109.82873 0 0 0 0.64055,11.77271 50.422123,50.422123 0 0 0 -16.31087,-2.70999 50.422123,50.422123 0 0 0 -50.422664,50.42268 50.422123,50.422123 0 0 0 50.422664,50.42096 h 276.44032 v -0.0781 a 71.10812,71.10812 0 0 0 71.02873,-71.10692 71.10812,71.10812 0 0 0 -71.10689,-71.10858 71.10812,71.10812 0 0 0 -40.3643,12.56616 111.07538,109.82873 0 0 0 -109.25223,-90.00711 z" />
      <path
         id="path3"
         style="fill:#ffffff;fill-opacity:1;stroke:none;stroke-width:5.14879;paint-order:markers stroke fill"
         d="m 236.61719,155.15039 a 111.07538,109.82873 0 0 0 -111.07422,109.82813 111.07538,109.82873 0 0 0 0.64062,11.77343 50.422123,50.422123 0 0 0 -16.31054,-2.71093 50.422123,50.422123 0 0 0 -48.3418,36.30273 50.422123,50.422123 0 0 0 48.3418,36.30273 H 386.3125 v -0.0781 a 71.10812,71.10812 0 0 0 69.61328,-56.98828 71.10812,71.10812 0 0 0 -69.6914,-56.98828 71.10812,71.10812 0 0 0 -40.36329,12.5664 111.07538,109.82873 0 0 0 -109.2539,-90.00781 z" />
    </g>
  </g>
</svg>
