<?xml version="1.0" encoding="UTF-8" standalone="no"?>
<!-- Created with Inkscape (http://www.inkscape.org/) -->

<svg
   width="512"
   height="512"
   viewBox="0 0 512 512"
   version="1.1"
   id="svg1"
   xmlns="http://www.w3.org/2000/svg"
   xmlns:svg="http://www.w3.org/2000/svg">
  <defs
     id="defs1" />
  <g
     id="g6"
     style="display:none">
    <circle
       style="fill:#febe17;fill-opacity:1;stroke:none;stroke-width:5.91874;paint-order:markers stroke fill"
       id="path4"
       cx="368.17474"
       cy="200.19844"
       r="87.75103" />
    <path
       id="circle4"
       style="fill:#ffc841;fill-opacity:1;stroke:none;stroke-width:5.91874;paint-order:markers stroke fill"
       d="m 356.61523,129.26172 a 87.75103,87.75103 0 0 0 -66.04101,29.9668 87.75103,87.75103 0 0 0 -10.15039,40.9707 87.75103,87.75103 0 0 0 87.75,87.75 87.75103,87.75103 0 0 0 66.04101,-29.9668 87.75103,87.75103 0 0 0 10.15039,-40.96875 87.75103,87.75103 0 0 0 -87.75,-87.75195 z" />
  </g>
  <g
     id="g10"
     style="display:none">
    <circle
       style="fill:#5a89bb;fill-opacity:1;stroke:none;stroke-width:5.91874;paint-order:markers stroke fill"
       id="circle10"
       cx="368.17474"
       cy="200.19844"
       r="87.75103" />
    <path
       id="path10"
       style="fill:#78a5c8;fill-opacity:1;stroke:none;stroke-width:5.91874;paint-order:markers stroke fill"
       d="m 356.61523,129.26172 a 87.75103,87.75103 0 0 0 -66.04101,29.9668 87.75103,87.75103 0 0 0 -10.15039,40.9707 87.75103,87.75103 0 0 0 87.75,87.75 87.75103,87.75103 0 0 0 66.04101,-29.9668 87.75103,87.75103 0 0 0 10.15039,-40.96875 87.75103,87.75103 0 0 0 -87.75,-87.75195 z" />
  </g>
  <g
     id="layer1">
    <g
       id="g4"
       style="display:inline">
      <path
         id="path1"
         style="display:none;fill:#dfdfdf;fill-opacity:1;stroke:none;stroke-width:5.14879;paint-order:markers stroke fill"
         d="m 236.61809,155.15029 a 111.07538,109.82873 0 0 0 -111.07531,109.82821 111.07538,109.82873 0 0 0 0.64055,11.77271 50.422123,50.422123 0 0 0 -16.31087,-2.70999 50.422123,50.422123 0 0 0 -50.422664,50.42268 50.422123,50.422123 0 0 0 50.422664,50.42096 h 276.44032 v -0.0781 a 71.10812,71.10812 0 0 0 71.02873,-71.10692 71.10812,71.10812 0 0 0 -71.10689,-71.10858 71.10812,71.10812 0 0 0 -40.3643,12.56616 111.07538,109.82873 0 0 0 -109.25223,-90.00711 z" />
      <path
         id="path3"
         style="display:none;fill:#ffffff;fill-opacity:1;stroke:none;stroke-width:5.14879;paint-order:markers stroke fill"
         d="m 236.61719,155.15039 a 111.07538,109.82873 0 0 0 -111.07422,109.82813 111.07538,109.82873 0 0 0 0.64062,11.77343 50.422123,50.422123 0 0 0 -16.31054,-2.71093 50.422123,50.422123 0 0 0 -48.3418,36.30273 50.422123,50.422123 0 0 0 48.3418,36.30273 H 386.3125 v -0.0781 a 71.10812,71.10812 0 0 0 69.61328,-56.98828 71.10812,71.10812 0 0 0 -69.6914,-56.98828 71.10812,71.10812 0 0 0 -40.36329,12.5664 111.07538,109.82873 0 0 0 -109.2539,-90.00781 z" />
      <g
         id="g16"
         style="display:inline">
        <path
           id="path15"
           style="fill:#4c5867;fill-opacity:1;stroke:none;stroke-width:5.14879;paint-order:markers stroke fill"
           d="m 236.61809,155.15029 a 111.07538,109.82873 0 0 0 -111.07531,109.82821 111.07538,109.82873 0 0 0 0.64055,11.77271 50.422123,50.422123 0 0 0 -16.31087,-2.70999 50.422123,50.422123 0 0 0 -50.422664,50.42268 50.422123,50.422123 0 0 0 50.422664,50.42096 h 276.44032 v -0.0781 a 71.10812,71.10812 0 0 0 71.02873,-71.10692 71.10812,71.10812 0 0 0 -71.10689,-71.10858 71.10812,71.10812 0 0 0 -40.3643,12.56616 111.07538,109.82873 0 0 0 -109.25223,-90.00711 z" />
        <path
           id="path16"
           style="fill:#6b7c93;fill-opacity:1;stroke:none;stroke-width:5.14879;paint-order:markers stroke fill"
           d="m 236.61719,155.15039 a 111.07538,109.82873 0 0 0 -111.07422,109.82813 111.07538,109.82873 0 0 0 0.64062,11.77343 50.422123,50.422123 0 0 0 -16.31054,-2.71093 50.422123,50.422123 0 0 0 -48.3418,36.30273 50.422123,50.422123 0 0 0 48.3418,36.30273 H 386.3125 v -0.0781 a 71.10812,71.10812 0 0 0 69.61328,-56.98828 71.10812,71.10812 0 0 0 -69.6914,-56.98828 71.10812,71.10812 0 0 0 -40.36329,12.5664 111.07538,109.82873 0 0 0 -109.2539,-90.00781 z" />
      </g>
    </g>
    <g
       id="g11"
       style="display:none">
      <path
         id="circle7"
         style="display:none;fill:#dfdfdf;fill-opacity:1;stroke:none;stroke-width:3.4757;paint-order:markers stroke fill"
         d="m -77.832031,278.06836 a 41.093334,40.985512 0 0 1 41.091797,40.98633 41.093334,40.985512 0 0 1 -41.091797,40.98633 h -54.181639 v -0.18946 a 30.58827,30.508011 0 0 1 -3.39844,0.18946 A 30.58827,30.508011 0 0 1 -166,329.53125 a 30.58827,30.508011 0 0 1 30.58789,-30.50781 30.58827,30.508011 0 0 1 18.87305,6.52539 41.093334,40.985512 0 0 1 38.707029,-27.48047 z"
         transform="scale(-1,1)" />
      <path
         id="path9"
         style="display:none;fill:#ffffff;fill-opacity:1;stroke:none;stroke-width:3.4757;paint-order:markers stroke fill"
         d="m 77.832031,278.06836 a 41.093334,40.985512 0 0 0 -40.216797,32.58203 41.093334,40.985512 0 0 0 40.216797,32.57617 h 54.181639 v -0.18945 a 30.58827,30.508011 0 0 0 3.39844,0.18945 30.58827,30.508011 0 0 0 29.40234,-22.09961 30.58827,30.508011 0 0 0 -29.40234,-22.10351 30.58827,30.508011 0 0 0 -18.87305,6.52539 41.093334,40.985512 0 0 0 -38.707029,-27.48047 z" />
      <path
         id="path5"
         style="display:none;fill:#dfdfdf;fill-opacity:1;stroke:none;stroke-width:5.91874;paint-order:markers stroke fill"
         d="M 405.94141,220.26953 A 69.885551,69.885551 0 0 0 340.00586,266.99609 52.020069,52.020069 0 0 0 308.01953,256 52.020069,52.020069 0 0 0 256,308.01953 a 52.020069,52.020069 0 0 0 52.01953,52.02149 52.020069,52.020069 0 0 0 5.7793,-0.32227 v 0.32227 h 92.14258 a 69.885551,69.885551 0 0 0 69.88671,-69.88672 69.885551,69.885551 0 0 0 -69.88671,-69.88477 z" />
      <path
         id="path8"
         style="display:none;fill:#ffffff;fill-opacity:1;stroke:none;stroke-width:5.91874;paint-order:markers stroke fill"
         d="M 405.94141,220.26953 A 69.885551,69.885551 0 0 0 340.00586,266.99609 52.020069,52.020069 0 0 0 308.01953,256 a 52.020069,52.020069 0 0 0 -51.25195,43.61328 52.020069,52.020069 0 0 0 51.25195,43.61328 52.020069,52.020069 0 0 0 5.7793,-0.32226 v 0.32226 h 92.14258 a 69.885551,69.885551 0 0 0 69.33593,-61.48047 69.885551,69.885551 0 0 0 -69.33593,-61.47656 z" />
      <g
         id="g14"
         style="display:inline">
        <path
           id="path11"
           style="display:inline;fill:#4c5867;fill-opacity:1;stroke:none;stroke-width:3.4757;paint-order:markers stroke fill"
           d="m -77.832031,278.06836 a 41.093334,40.985512 0 0 1 41.091797,40.98633 41.093334,40.985512 0 0 1 -41.091797,40.98633 h -54.181639 v -0.18946 a 30.58827,30.508011 0 0 1 -3.39844,0.18946 A 30.58827,30.508011 0 0 1 -166,329.53125 a 30.58827,30.508011 0 0 1 30.58789,-30.50781 30.58827,30.508011 0 0 1 18.87305,6.52539 41.093334,40.985512 0 0 1 38.707029,-27.48047 z"
           transform="scale(-1,1)" />
        <path
           id="path12"
           style="fill:#6b7c93;fill-opacity:1;stroke:none;stroke-width:3.4757;paint-order:markers stroke fill"
           d="m 77.832031,278.06836 a 41.093334,40.985512 0 0 0 -40.216797,32.58203 41.093334,40.985512 0 0 0 40.216797,32.57617 h 54.181639 v -0.18945 a 30.58827,30.508011 0 0 0 3.39844,0.18945 30.58827,30.508011 0 0 0 29.40234,-22.09961 30.58827,30.508011 0 0 0 -29.40234,-22.10351 30.58827,30.508011 0 0 0 -18.87305,6.52539 41.093334,40.985512 0 0 0 -38.707029,-27.48047 z" />
        <path
           id="path13"
           style="display:inline;fill:#4c5867;fill-opacity:1;stroke:none;stroke-width:5.91874;paint-order:markers stroke fill"
           d="M 405.94141,220.26953 A 69.885551,69.885551 0 0 0 340.00586,266.99609 52.020069,52.020069 0 0 0 308.01953,256 52.020069,52.020069 0 0 0 256,308.01953 a 52.020069,52.020069 0 0 0 52.01953,52.02149 52.020069,52.020069 0 0 0 5.7793,-0.32227 v 0.32227 h 92.14258 a 69.885551,69.885551 0 0 0 69.88671,-69.88672 69.885551,69.885551 0 0 0 -69.88671,-69.88477 z" />
        <path
           id="path14"
           style="fill:#6b7c93;fill-opacity:1;stroke:none;stroke-width:5.91874;paint-order:markers stroke fill"
           d="M 405.94141,220.26953 A 69.885551,69.885551 0 0 0 340.00586,266.99609 52.020069,52.020069 0 0 0 308.01953,256 a 52.020069,52.020069 0 0 0 -51.25195,43.61328 52.020069,52.020069 0 0 0 51.25195,43.61328 52.020069,52.020069 0 0 0 5.7793,-0.32226 v 0.32226 h 92.14258 a 69.885551,69.885551 0 0 0 69.33593,-61.48047 69.885551,69.885551 0 0 0 -69.33593,-61.47656 z" />
      </g>
    </g>
    <g
       id="g29"
       style="display:inline">
      <g
         id="g25"
         style="display:inline"
         transform="translate(4.9496095,-85.9998)">
        <path
           id="path19"
           style="display:inline;fill:#dfdfdf;fill-opacity:1;stroke:none;stroke-width:5.91874;paint-order:markers stroke fill"
           d="M 405.94141,220.26953 A 69.885551,69.885551 0 0 0 340.00586,266.99609 52.020069,52.020069 0 0 0 308.01953,256 52.020069,52.020069 0 0 0 256,308.01953 a 52.020069,52.020069 0 0 0 52.01953,52.02149 52.020069,52.020069 0 0 0 5.7793,-0.32227 v 0.32227 h 92.14258 A 69.885551,69.885551 0 0 0 475.82812,290.1543 69.885551,69.885551 0 0 0 405.94141,220.26953 Z M 77.832031,278.06836 a 41.093334,40.985512 0 0 0 -41.091797,40.98633 41.093334,40.985512 0 0 0 41.091797,40.98633 h 54.181639 v -0.18946 a 30.58827,30.508011 0 0 0 3.39844,0.18946 A 30.58827,30.508011 0 0 0 166,329.53125 30.58827,30.508011 0 0 0 135.41211,299.02344 30.58827,30.508011 0 0 0 116.53906,305.54883 41.093334,40.985512 0 0 0 77.832031,278.06836 Z" />
        <path
           id="path20"
           style="display:inline;fill:#ffffff;fill-opacity:1;stroke:none;stroke-width:5.91874;paint-order:markers stroke fill"
           d="M 405.94141,220.26953 A 69.885551,69.885551 0 0 0 340.00586,266.99609 52.020069,52.020069 0 0 0 308.01953,256 a 52.020069,52.020069 0 0 0 -51.25195,43.61328 52.020069,52.020069 0 0 0 51.25195,43.61328 52.020069,52.020069 0 0 0 5.7793,-0.32226 v 0.32226 h 92.14258 a 69.885551,69.885551 0 0 0 69.33593,-61.48047 69.885551,69.885551 0 0 0 -69.33593,-61.47656 z M 77.832031,278.06836 a 41.093334,40.985512 0 0 0 -40.216797,32.58203 41.093334,40.985512 0 0 0 40.216797,32.57617 h 54.181639 v -0.18945 a 30.58827,30.508011 0 0 0 3.39844,0.18945 30.58827,30.508011 0 0 0 29.40234,-22.09961 30.58827,30.508011 0 0 0 -29.40234,-22.10351 30.58827,30.508011 0 0 0 -18.87305,6.52539 41.093334,40.985512 0 0 0 -38.707029,-27.48047 z" />
        <path
           id="path31"
           style="display:inline;mix-blend-mode:multiply;fill:#c4c4c4;fill-opacity:1;stroke:none;stroke-width:5.91874;paint-order:markers stroke fill"
           d="M 405.94141,220.26953 A 69.885551,69.885551 0 0 0 340.00586,266.99609 52.020069,52.020069 0 0 0 308.01953,256 52.020069,52.020069 0 0 0 256,308.01953 a 52.020069,52.020069 0 0 0 52.01953,52.02149 52.020069,52.020069 0 0 0 5.7793,-0.32227 v 0.32227 h 92.14258 A 69.885551,69.885551 0 0 0 475.82812,290.1543 69.885551,69.885551 0 0 0 405.94141,220.26953 Z M 77.832031,278.06836 a 41.093334,40.985512 0 0 0 -41.091797,40.98633 41.093334,40.985512 0 0 0 41.091797,40.98633 h 54.181639 v -0.18946 a 30.58827,30.508011 0 0 0 3.39844,0.18946 A 30.58827,30.508011 0 0 0 166,329.53125 30.58827,30.508011 0 0 0 135.41211,299.02344 30.58827,30.508011 0 0 0 116.53906,305.54883 41.093334,40.985512 0 0 0 77.832031,278.06836 Z" />
        <g
           id="g24"
           style="display:inline">
          <path
             id="path23"
             style="display:none;fill:#4c5867;fill-opacity:1;stroke:none;stroke-width:5.91874;paint-order:markers stroke fill"
             d="M 405.94141,220.26953 A 69.885551,69.885551 0 0 0 340.00586,266.99609 52.020069,52.020069 0 0 0 308.01953,256 52.020069,52.020069 0 0 0 256,308.01953 a 52.020069,52.020069 0 0 0 52.01953,52.02149 52.020069,52.020069 0 0 0 5.7793,-0.32227 v 0.32227 h 92.14258 A 69.885551,69.885551 0 0 0 475.82812,290.1543 69.885551,69.885551 0 0 0 405.94141,220.26953 Z M 77.832031,278.06836 a 41.093334,40.985512 0 0 0 -41.091797,40.98633 41.093334,40.985512 0 0 0 41.091797,40.98633 h 54.181639 v -0.18946 a 30.58827,30.508011 0 0 0 3.39844,0.18946 A 30.58827,30.508011 0 0 0 166,329.53125 30.58827,30.508011 0 0 0 135.41211,299.02344 30.58827,30.508011 0 0 0 116.53906,305.54883 41.093334,40.985512 0 0 0 77.832031,278.06836 Z" />
          <path
             id="path24"
             style="display:none;fill:#6b7c93;fill-opacity:1;stroke:none;stroke-width:5.91874;paint-order:markers stroke fill"
             d="M 405.94141,220.26953 A 69.885551,69.885551 0 0 0 340.00586,266.99609 52.020069,52.020069 0 0 0 308.01953,256 a 52.020069,52.020069 0 0 0 -51.25195,43.61328 52.020069,52.020069 0 0 0 51.25195,43.61328 52.020069,52.020069 0 0 0 5.7793,-0.32226 v 0.32226 h 92.14258 a 69.885551,69.885551 0 0 0 69.33593,-61.48047 69.885551,69.885551 0 0 0 -69.33593,-61.47656 z M 77.832031,278.06836 a 41.093334,40.985512 0 0 0 -40.216797,32.58203 41.093334,40.985512 0 0 0 40.216797,32.57617 h 54.181639 v -0.18945 a 30.58827,30.508011 0 0 0 3.39844,0.18945 30.58827,30.508011 0 0 0 29.40234,-22.09961 30.58827,30.508011 0 0 0 -29.40234,-22.10351 30.58827,30.508011 0 0 0 -18.87305,6.52539 41.093334,40.985512 0 0 0 -38.707029,-27.48047 z" />
          <path
             id="path30"
             style="display:none;mix-blend-mode:multiply;fill:#8b8f96;fill-opacity:1;stroke:none;stroke-width:5.91874;paint-order:markers stroke fill"
             d="m 405.94102,220.26933 a 69.885551,69.885551 0 0 0 -65.93555,46.72656 52.020069,52.020069 0 0 0 -31.98633,-10.99609 52.020069,52.020069 0 0 0 -52.01953,52.01953 52.020069,52.020069 0 0 0 52.01953,52.02149 52.020069,52.020069 0 0 0 5.7793,-0.32227 v 0.32227 h 92.14258 A 69.885551,69.885551 0 0 0 475.82773,290.1541 69.885551,69.885551 0 0 0 405.94102,220.26933 Z M 77.831641,278.06816 a 41.093334,40.985512 0 0 0 -41.091797,40.98633 41.093334,40.985512 0 0 0 41.091797,40.98633 h 54.181639 v -0.18946 a 30.58827,30.508011 0 0 0 3.39844,0.18946 30.58827,30.508011 0 0 0 30.58789,-30.50977 30.58827,30.508011 0 0 0 -30.58789,-30.50781 30.58827,30.508011 0 0 0 -18.87305,6.52539 41.093334,40.985512 0 0 0 -38.707029,-27.48047 z" />
        </g>
      </g>
      <path
         id="path25"
         style="display:inline;fill:#dfdfdf;fill-opacity:1;stroke:none;stroke-width:5.14879;paint-order:markers stroke fill"
         d="m 236.61809,155.15029 a 111.07538,109.82873 0 0 0 -111.07531,109.82821 111.07538,109.82873 0 0 0 0.64055,11.77271 50.422123,50.422123 0 0 0 -16.31087,-2.70999 50.422123,50.422123 0 0 0 -50.422664,50.42268 50.422123,50.422123 0 0 0 50.422664,50.42096 h 276.44032 v -0.0781 a 71.10812,71.10812 0 0 0 71.02873,-71.10692 71.10812,71.10812 0 0 0 -71.10689,-71.10858 71.10812,71.10812 0 0 0 -40.3643,12.56616 111.07538,109.82873 0 0 0 -109.25223,-90.00711 z" />
      <path
         id="path26"
         style="display:inline;fill:#ffffff;fill-opacity:1;stroke:none;stroke-width:5.14879;paint-order:markers stroke fill"
         d="m 236.61719,155.15039 a 111.07538,109.82873 0 0 0 -111.07422,109.82813 111.07538,109.82873 0 0 0 0.64062,11.77343 50.422123,50.422123 0 0 0 -16.31054,-2.71093 50.422123,50.422123 0 0 0 -48.3418,36.30273 50.422123,50.422123 0 0 0 48.3418,36.30273 H 386.3125 v -0.0781 a 71.10812,71.10812 0 0 0 69.61328,-56.98828 71.10812,71.10812 0 0 0 -69.6914,-56.98828 71.10812,71.10812 0 0 0 -40.36329,12.5664 111.07538,109.82873 0 0 0 -109.2539,-90.00781 z" />
      <g
         id="g28"
         style="display:none">
        <path
           id="path27"
           style="fill:#4c5867;fill-opacity:1;stroke:none;stroke-width:5.14879;paint-order:markers stroke fill"
           d="m 236.61809,155.15029 a 111.07538,109.82873 0 0 0 -111.07531,109.82821 111.07538,109.82873 0 0 0 0.64055,11.77271 50.422123,50.422123 0 0 0 -16.31087,-2.70999 50.422123,50.422123 0 0 0 -50.422664,50.42268 50.422123,50.422123 0 0 0 50.422664,50.42096 h 276.44032 v -0.0781 a 71.10812,71.10812 0 0 0 71.02873,-71.10692 71.10812,71.10812 0 0 0 -71.10689,-71.10858 71.10812,71.10812 0 0 0 -40.3643,12.56616 111.07538,109.82873 0 0 0 -109.25223,-90.00711 z" />
        <path
           id="path28"
           style="fill:#6b7c93;fill-opacity:1;stroke:none;stroke-width:5.14879;paint-order:markers stroke fill"
           d="m 236.61719,155.15039 a 111.07538,109.82873 0 0 0 -111.07422,109.82813 111.07538,109.82873 0 0 0 0.64062,11.77343 50.422123,50.422123 0 0 0 -16.31054,-2.71093 50.422123,50.422123 0 0 0 -48.3418,36.30273 50.422123,50.422123 0 0 0 48.3418,36.30273 H 386.3125 v -0.0781 a 71.10812,71.10812 0 0 0 69.61328,-56.98828 71.10812,71.10812 0 0 0 -69.6914,-56.98828 71.10812,71.10812 0 0 0 -40.36329,12.5664 111.07538,109.82873 0 0 0 -109.2539,-90.00781 z" />
      </g>
    </g>
  </g>
</svg>
